<mxfile host="app.diagrams.net" modified="2024-03-13T18:42:37.134Z" agent="Mozilla/5.0 (Windows NT 10.0; Win64; x64) AppleWebKit/537.36 (KHTML, like Gecko) Chrome/121.0.0.0 Safari/537.36 OPR/107.0.0.0" etag="Pg6WokN4iAYAEaOsth_-" version="24.0.5" type="github">
  <diagram name="Página-1" id="kNcyN8Gq90esB2_-xvFv">
    <mxGraphModel dx="1316" dy="783" grid="1" gridSize="10" guides="1" tooltips="1" connect="1" arrows="1" fold="1" page="1" pageScale="1" pageWidth="827" pageHeight="1169" math="0" shadow="0">
      <root>
        <mxCell id="0" />
        <mxCell id="1" parent="0" />
        <mxCell id="jfokL2-ESEKd3LaJ67no-7" style="edgeStyle=orthogonalEdgeStyle;rounded=0;orthogonalLoop=1;jettySize=auto;html=1;exitX=0;exitY=0.5;exitDx=0;exitDy=0;" edge="1" parent="1" source="jfokL2-ESEKd3LaJ67no-1" target="jfokL2-ESEKd3LaJ67no-6">
          <mxGeometry relative="1" as="geometry" />
        </mxCell>
        <mxCell id="jfokL2-ESEKd3LaJ67no-1" value="Inicio" style="ellipse;whiteSpace=wrap;html=1;" vertex="1" parent="1">
          <mxGeometry x="346" y="110" width="120" height="80" as="geometry" />
        </mxCell>
        <mxCell id="jfokL2-ESEKd3LaJ67no-9" style="edgeStyle=orthogonalEdgeStyle;rounded=0;orthogonalLoop=1;jettySize=auto;html=1;" edge="1" parent="1" source="jfokL2-ESEKd3LaJ67no-3" target="jfokL2-ESEKd3LaJ67no-10">
          <mxGeometry relative="1" as="geometry">
            <mxPoint x="306" y="130" as="targetPoint" />
          </mxGeometry>
        </mxCell>
        <mxCell id="jfokL2-ESEKd3LaJ67no-3" value="&quot;Insira uma nota&quot;" style="shape=document;whiteSpace=wrap;html=1;boundedLbl=1;" vertex="1" parent="1">
          <mxGeometry x="196" y="220" width="120" height="80" as="geometry" />
        </mxCell>
        <mxCell id="jfokL2-ESEKd3LaJ67no-8" style="edgeStyle=orthogonalEdgeStyle;rounded=0;orthogonalLoop=1;jettySize=auto;html=1;exitX=0.5;exitY=1;exitDx=0;exitDy=0;" edge="1" parent="1" source="jfokL2-ESEKd3LaJ67no-6" target="jfokL2-ESEKd3LaJ67no-3">
          <mxGeometry relative="1" as="geometry" />
        </mxCell>
        <mxCell id="jfokL2-ESEKd3LaJ67no-6" value="somNotas = 0&lt;div&gt;contNotas = 0&lt;/div&gt;" style="rounded=0;whiteSpace=wrap;html=1;" vertex="1" parent="1">
          <mxGeometry x="196" y="120" width="120" height="60" as="geometry" />
        </mxCell>
        <mxCell id="jfokL2-ESEKd3LaJ67no-11" style="edgeStyle=orthogonalEdgeStyle;rounded=0;orthogonalLoop=1;jettySize=auto;html=1;exitX=1;exitY=0.5;exitDx=0;exitDy=0;" edge="1" parent="1" source="jfokL2-ESEKd3LaJ67no-10" target="jfokL2-ESEKd3LaJ67no-12">
          <mxGeometry relative="1" as="geometry">
            <mxPoint x="506" y="260" as="targetPoint" />
          </mxGeometry>
        </mxCell>
        <mxCell id="jfokL2-ESEKd3LaJ67no-10" value="nota" style="shape=parallelogram;perimeter=parallelogramPerimeter;whiteSpace=wrap;html=1;fixedSize=1;" vertex="1" parent="1">
          <mxGeometry x="346" y="230" width="120" height="60" as="geometry" />
        </mxCell>
        <mxCell id="jfokL2-ESEKd3LaJ67no-14" style="edgeStyle=orthogonalEdgeStyle;rounded=0;orthogonalLoop=1;jettySize=auto;html=1;exitX=0.5;exitY=1;exitDx=0;exitDy=0;entryX=0.5;entryY=0;entryDx=0;entryDy=0;" edge="1" parent="1" source="jfokL2-ESEKd3LaJ67no-12" target="jfokL2-ESEKd3LaJ67no-13">
          <mxGeometry relative="1" as="geometry" />
        </mxCell>
        <mxCell id="jfokL2-ESEKd3LaJ67no-12" value="contNotas++&lt;div&gt;somNotas+=nota&lt;/div&gt;" style="rounded=0;whiteSpace=wrap;html=1;" vertex="1" parent="1">
          <mxGeometry x="496" y="230" width="120" height="60" as="geometry" />
        </mxCell>
        <mxCell id="jfokL2-ESEKd3LaJ67no-18" style="edgeStyle=orthogonalEdgeStyle;rounded=0;orthogonalLoop=1;jettySize=auto;html=1;entryX=0.5;entryY=0;entryDx=0;entryDy=0;" edge="1" parent="1" source="jfokL2-ESEKd3LaJ67no-13" target="jfokL2-ESEKd3LaJ67no-17">
          <mxGeometry relative="1" as="geometry" />
        </mxCell>
        <mxCell id="jfokL2-ESEKd3LaJ67no-13" value="&quot;Deseja inserir mais uma nota?&lt;div&gt;Notas Digitadas: &quot; contNotas&lt;div&gt;&lt;br&gt;&lt;/div&gt;&lt;/div&gt;" style="shape=document;whiteSpace=wrap;html=1;boundedLbl=1;size=0.2222222222222222;" vertex="1" parent="1">
          <mxGeometry x="481" y="320" width="150" height="110" as="geometry" />
        </mxCell>
        <mxCell id="jfokL2-ESEKd3LaJ67no-20" style="edgeStyle=orthogonalEdgeStyle;rounded=0;orthogonalLoop=1;jettySize=auto;html=1;exitX=0;exitY=0.5;exitDx=0;exitDy=0;entryX=1;entryY=0.5;entryDx=0;entryDy=0;" edge="1" parent="1" source="jfokL2-ESEKd3LaJ67no-17" target="jfokL2-ESEKd3LaJ67no-19">
          <mxGeometry relative="1" as="geometry" />
        </mxCell>
        <mxCell id="jfokL2-ESEKd3LaJ67no-17" value="R" style="shape=parallelogram;perimeter=parallelogramPerimeter;whiteSpace=wrap;html=1;fixedSize=1;" vertex="1" parent="1">
          <mxGeometry x="496" y="470" width="120" height="60" as="geometry" />
        </mxCell>
        <mxCell id="jfokL2-ESEKd3LaJ67no-24" style="edgeStyle=orthogonalEdgeStyle;rounded=0;orthogonalLoop=1;jettySize=auto;html=1;exitX=0.5;exitY=0;exitDx=0;exitDy=0;" edge="1" parent="1" source="jfokL2-ESEKd3LaJ67no-19" target="jfokL2-ESEKd3LaJ67no-22">
          <mxGeometry relative="1" as="geometry">
            <mxPoint x="406" y="420" as="targetPoint" />
          </mxGeometry>
        </mxCell>
        <mxCell id="jfokL2-ESEKd3LaJ67no-28" value="T" style="edgeLabel;html=1;align=center;verticalAlign=middle;resizable=0;points=[];" vertex="1" connectable="0" parent="jfokL2-ESEKd3LaJ67no-24">
          <mxGeometry x="-0.2" y="2" relative="1" as="geometry">
            <mxPoint as="offset" />
          </mxGeometry>
        </mxCell>
        <mxCell id="jfokL2-ESEKd3LaJ67no-26" style="edgeStyle=orthogonalEdgeStyle;rounded=0;orthogonalLoop=1;jettySize=auto;html=1;exitX=0;exitY=0.5;exitDx=0;exitDy=0;" edge="1" parent="1" source="jfokL2-ESEKd3LaJ67no-19" target="jfokL2-ESEKd3LaJ67no-29">
          <mxGeometry relative="1" as="geometry">
            <mxPoint x="296" y="500" as="targetPoint" />
          </mxGeometry>
        </mxCell>
        <mxCell id="jfokL2-ESEKd3LaJ67no-27" value="F" style="edgeLabel;html=1;align=center;verticalAlign=middle;resizable=0;points=[];" vertex="1" connectable="0" parent="jfokL2-ESEKd3LaJ67no-26">
          <mxGeometry x="-0.149" y="1" relative="1" as="geometry">
            <mxPoint as="offset" />
          </mxGeometry>
        </mxCell>
        <mxCell id="jfokL2-ESEKd3LaJ67no-19" value="R == True" style="rhombus;whiteSpace=wrap;html=1;" vertex="1" parent="1">
          <mxGeometry x="366" y="460" width="80" height="80" as="geometry" />
        </mxCell>
        <mxCell id="jfokL2-ESEKd3LaJ67no-25" style="edgeStyle=orthogonalEdgeStyle;rounded=0;orthogonalLoop=1;jettySize=auto;html=1;exitX=0.5;exitY=0;exitDx=0;exitDy=0;entryX=0.5;entryY=1;entryDx=0;entryDy=0;" edge="1" parent="1" source="jfokL2-ESEKd3LaJ67no-22" target="jfokL2-ESEKd3LaJ67no-10">
          <mxGeometry relative="1" as="geometry" />
        </mxCell>
        <mxCell id="jfokL2-ESEKd3LaJ67no-22" value="&quot;Digite a nota" style="shape=document;whiteSpace=wrap;html=1;boundedLbl=1;" vertex="1" parent="1">
          <mxGeometry x="346" y="335" width="120" height="80" as="geometry" />
        </mxCell>
        <mxCell id="jfokL2-ESEKd3LaJ67no-32" style="edgeStyle=orthogonalEdgeStyle;rounded=0;orthogonalLoop=1;jettySize=auto;html=1;exitX=0.5;exitY=1;exitDx=0;exitDy=0;entryX=0.5;entryY=0;entryDx=0;entryDy=0;" edge="1" parent="1" source="jfokL2-ESEKd3LaJ67no-29" target="jfokL2-ESEKd3LaJ67no-31">
          <mxGeometry relative="1" as="geometry" />
        </mxCell>
        <mxCell id="jfokL2-ESEKd3LaJ67no-29" value="Med = somNotas / contNotas" style="rounded=0;whiteSpace=wrap;html=1;" vertex="1" parent="1">
          <mxGeometry x="196" y="470" width="120" height="60" as="geometry" />
        </mxCell>
        <mxCell id="jfokL2-ESEKd3LaJ67no-33" style="edgeStyle=orthogonalEdgeStyle;rounded=0;orthogonalLoop=1;jettySize=auto;html=1;exitX=1;exitY=0.5;exitDx=0;exitDy=0;" edge="1" parent="1" source="jfokL2-ESEKd3LaJ67no-31" target="jfokL2-ESEKd3LaJ67no-34">
          <mxGeometry relative="1" as="geometry">
            <mxPoint x="386" y="610" as="targetPoint" />
          </mxGeometry>
        </mxCell>
        <mxCell id="jfokL2-ESEKd3LaJ67no-31" value="&quot;Sua média é &quot; Med" style="shape=document;whiteSpace=wrap;html=1;boundedLbl=1;" vertex="1" parent="1">
          <mxGeometry x="196" y="570" width="120" height="80" as="geometry" />
        </mxCell>
        <mxCell id="jfokL2-ESEKd3LaJ67no-34" value="Fim" style="ellipse;whiteSpace=wrap;html=1;" vertex="1" parent="1">
          <mxGeometry x="346" y="570" width="120" height="80" as="geometry" />
        </mxCell>
      </root>
    </mxGraphModel>
  </diagram>
</mxfile>
